<svg xmlns="http://www.w3.org/2000/svg" width="19" height="22" viewBox="0 0 19 22"><defs><style>.a{fill:rgba(0,0,0,0.6);}</style></defs><path class="a" d="M18.634,15.567c-.819-.892-2.353-2.234-2.353-6.63A6.763,6.763,0,0,0,10.856,2.27v-.9a1.356,1.356,0,1,0-2.713,0v.9A6.763,6.763,0,0,0,2.717,8.937c0,4.4-1.533,5.738-2.353,6.63A1.352,1.352,0,0,0,0,16.5a1.368,1.368,0,0,0,1.361,1.375H17.638A1.367,1.367,0,0,0,19,16.5a1.352,1.352,0,0,0-.365-.933Zm-15.771.245c.9-1.2,1.884-3.194,1.889-6.85,0-.009,0-.016,0-.025a4.75,4.75,0,1,1,9.5,0c0,.009,0,.016,0,.025,0,3.657.989,5.649,1.889,6.85ZM9.5,22a2.732,2.732,0,0,0,2.713-2.75H6.786A2.732,2.732,0,0,0,9.5,22Z" transform="translate(0.001)"/></svg>